<?xml version="1.0" encoding="UTF-8" standalone="no"?>
<svg version="1.1" xmlns="http://www.w3.org/2000/svg" height="147mm" width="145mm" viewBox="0 30 147 145">
	<g>
		<g className="logo">
			<path fill="#BB95D1" d="M16.7,130.9c-2.7-6-4.3-11.7-5.3-18.4 c-0.5-3.6-0.5-12.9,0-16.4c1-6.9,2.6-12.4,5.3-18.5c0.4-0.9,0.7-1.6,0.8-1.7c0,0,29.2,16.7,29.3,16.9c0,0-0.2,0.8-0.6,1.8 c-1.2,3.6-1.5,5.3-1.5,9.6c0,4.3,0.3,6.4,1.5,9.8c0.3,1,0.7,1.9,0.7,2.1c0.1,0.3-1,0.9-24.2,14.4l-5,2.9L16.7,130.9z"/>
			<path fill="#FC746A" d="M36.6,77.5c-7.7-4.5-14.3-8.2-14.5-8.4l-0.5-0.2l1-1.5 c3-4.3,8.4-10,12.4-13.2c10.1-8,22-12.8,34.9-14l1.5-0.1V57v16.9l-1.6,0.3c-2.3,0.4-6,1.7-8.4,2.9c-3.1,1.6-5.6,3.4-8.2,6.2 c-1.3,1.3-2.4,2.4-2.4,2.4C50.7,85.6,44.3,82,36.6,77.5L36.6,77.5z"/>
			<path  fill="#49C5B1" d="M98.7,84.4c-4-4.9-10.7-8.8-17.2-10.1L79.8,74V57v-17l1.7,0.1 c3.9,0.3,9.9,1.6,13.9,2.9c13,4.3,24.5,12.7,32.4,23.8c0.8,1.1,1.4,2,1.4,2.1c0,0.1-28.9,16.9-29.1,16.9 C100,85.9,99.4,85.2,98.7,84.4z"/>
			<path fill="#DC4397" d="M118.4,124.8l-14.7-8.5l0.5-1.1c2.3-5.7,2.5-13.8,0.5-20.1 c-0.3-1-0.5-1.9-0.5-2c0.2-0.2,28.7-16.6,28.9-16.7c0.6-0.1,3.4,7.1,4.6,11.9c2.3,8.8,2.7,18,1.2,26.8c-1,5.7-3.3,12.9-5.5,17.3 l-0.4,0.7L118.4,124.8z"/>
			<path fill="#69B3E7" d="M79.8,151.7v-16.9l0.6-0.1c7.3-1.5,11.9-3.9,16.8-8.7l2.6-2.5 l14.6,8.4l14.6,8.4l-0.8,1.1c-10.6,15.1-28.2,25.4-46.5,27l-1.9,0.2L79.8,151.7z"/>
			<path fill="#edc414" d="M69.3,168.6c-8.2-0.8-17.5-3.7-24.8-7.7 c-6.7-3.7-13.2-9-18-14.6c-2.3-2.7-4.5-5.7-4.3-5.9c0.1-0.1,6.7-3.9,14.6-8.5l14.5-8.3l2.5,2.5c4.5,4.5,9.3,7.1,15.5,8.4l2.1,0.4 v16.9v16.9l-0.7,0C70.4,168.7,69.7,168.6,69.3,168.6L69.3,168.6z"/>
		</g>
	</g>
</svg>
