<svg
	xmlns="http://www.w3.org/2000/svg"
	version="1.1"
	viewBox="0 0 10 10"
>
	<g>
    <path
		transform="scale(0.26458334)"
		d="M 13.013672 2.2226562 A 1.0013963 1.0013963 0 0 0 13.109375 4.2226562 L 14.236328 4.2226562 C 14.282371 5.0612753 14.365329 6.6783789 14.402344 8.7910156 C 14.426759 10.183911 14.423409 11.627435 14.357422 12.806641 C 14.291431 13.985846 14.064226 15.000545 14.041016 15.044922 C 11.069742 20.725853 7.3972474 26.317755 4.3261719 31.455078 C 3.8341016 32.278218 3.0395086 33.257376 2.8496094 34.636719 C 2.7413818 35.422836 2.9110411 36.211498 3.2773438 36.931641 C 3.6436463 37.651783 4.3237904 38.416259 5.3671875 38.421875 C 7.6145221 38.433969 11.45954 38.52249 14.755859 38.511719 C 16.404019 38.506427 17.911276 38.477871 19.044922 38.400391 C 19.611745 38.36165 20.078889 38.317878 20.470703 38.238281 C 20.666611 38.198483 20.839857 38.152967 21.052734 38.052734 C 21.159173 38.002618 21.286106 37.945336 21.429688 37.802734 C 21.57327 37.660178 21.743217 37.383272 21.753906 37.056641 C 21.83552 34.562693 22.431083 33.847736 22.943359 33.34375 C 23.199498 33.091757 23.497139 32.919846 23.828125 32.472656 C 24.159111 32.025466 24.238976 31.201072 23.984375 30.589844 C 23.404164 29.196914 23.630654 28.520407 23.835938 27.962891 C 23.88726 27.823513 23.941154 27.696377 23.998047 27.541016 C 24.054936 27.385654 24.152304 27.210365 24.123047 26.833984 C 24.09379 26.457602 23.684007 25.948061 23.363281 25.822266 C 23.042556 25.69647 22.821898 25.708413 22.574219 25.710938 L 9.9726562 25.835938 C 11.976575 22.575467 13.999199 19.441552 15.8125 15.974609 C 16.252455 15.133437 16.286711 14.18144 16.357422 12.917969 C 16.428133 11.654497 16.427246 10.177092 16.402344 8.7558594 C 16.362191 6.4642279 16.275866 5.106948 16.232422 4.3632812 L 21.164062 4.3105469 C 21.132352 5.0565496 21.065569 6.4437928 21.044922 8.7558594 C 21.032147 10.186509 21.046101 11.672199 21.111328 12.933594 C 21.176555 14.194989 21.204803 15.116718 21.570312 15.929688 C 24.180014 21.734168 25.400391 23.421875 25.400391 23.421875 A 1.0032449 1.0032449 0 0 0 27.017578 22.234375 C 27.017578 22.234375 25.967383 20.838193 23.392578 15.111328 C 23.369145 15.059224 23.167083 14.021591 23.105469 12.830078 C 23.043855 11.638565 23.034306 10.176889 23.046875 8.7695312 C 23.065395 6.6958562 23.123863 5.1104741 23.160156 4.2226562 L 24.677734 4.2226562 A 1.0002461 1.0002461 0 0 0 24.677734 2.2226562 L 13.109375 2.2226562 A 1.0001001 1.0001001 0 0 0 13.013672 2.2226562 z M 29.882812 24.375 C 27.43744 24.375 25.4375 26.372987 25.4375 28.818359 C 25.4375 30.071819 25.967375 31.204063 26.808594 32.015625 C 25.450963 32.666395 24.538372 33.718643 24.013672 34.738281 C 23.171146 36.375545 23.134765 37.986328 23.134766 37.986328 L 25.134766 38.046875 C 25.134766 38.046875 25.184736 36.83626 25.792969 35.654297 C 26.401201 34.472333 27.381227 33.376349 29.779297 33.373047 C 32.460655 33.369363 33.518826 34.496072 34.140625 35.675781 C 34.762425 36.85549 34.775391 38.060547 34.775391 38.060547 L 36.777344 38.060547 C 36.777344 38.060547 36.790342 36.412352 35.912109 34.746094 C 35.365801 33.709598 34.408549 32.657427 32.964844 32.009766 C 33.804425 31.198588 34.333984 30.068819 34.333984 28.818359 C 34.333984 26.372987 32.328186 24.375 29.882812 24.375 z M 29.882812 26.257812 C 31.307295 26.257812 32.443359 27.393878 32.443359 28.818359 C 32.443359 30.240846 31.310353 31.377681 29.888672 31.380859 C 29.875708 31.380721 29.86457 31.377039 29.851562 31.376953 C 28.442165 31.359992 27.320312 30.232105 27.320312 28.818359 C 27.320312 27.393878 28.458331 26.257812 29.882812 26.257812 z M 21.982422 27.71875 C 21.737634 28.534709 21.451421 29.707519 22.138672 31.357422 C 22.075598 31.413263 21.882223 31.584237 21.541016 31.919922 C 20.87546 32.574706 20.267508 34.151266 20.005859 36.28125 C 19.775083 36.324287 19.404643 36.374551 18.912109 36.408203 C 17.867166 36.4796 16.376315 36.5064 14.748047 36.511719 C 11.491509 36.522356 7.6583575 36.434172 5.3730469 36.421875 C 5.3953623 36.421995 5.2435184 36.375476 5.0644531 36.023438 C 4.8853874 35.671398 4.7970879 35.133641 4.828125 34.908203 C 4.923744 34.213669 5.4662256 33.438716 6.0390625 32.480469 C 6.8924265 31.052954 7.8572286 29.34813 8.7851562 27.84375 L 21.982422 27.71875 z "
	/>
	</g>
</svg>
