<svg
	xmlns="http://www.w3.org/2000/svg"
	version="1.1"
	viewBox="0 0 10 10"
>
	<g>
		<path
			d="m 6.7799498,0.5291647 q 0.451135,0 0.869714,0.116272 0.418579,0.116272 0.781348,0.3302124 0.362768,0.2139404 0.660425,0.5162476 0.302307,0.2976563 0.5162475,0.6604248 0.2139402,0.3627686 0.3302122,0.7813477 0.1162725,0.4185791 0.1162725,0.8697143 0,0.4511355 -0.1162725,0.8697145 -0.116272,0.4185791 -0.3302122,0.7813477 -0.2139405,0.3627686 -0.5162475,0.6650757 -0.297657,0.2976563 -0.660425,0.5115968 -0.362769,0.2139405 -0.781348,0.3302124 -0.418579,0.116272 -0.869714,0.116272 -0.58136,0 -1.116211,-0.1953369 -0.5302,-0.1953371 -0.976685,-0.5627563 l -3.65094,3.6462894 q -0.08837,0.08837 -0.20929,0.08837 -0.120922,0 -0.209289,-0.08837 -0.08837,-0.088367 -0.08837,-0.2092897 0,-0.120923 0.08837,-0.2092896 L 4.2638238,5.8962792 Q 3.8964048,5.4497949 3.7010678,4.9195947 3.5057308,4.3847435 3.5057308,3.8033835 q 0,-0.4511352 0.116272,-0.8697143 0.116272,-0.4185791 0.330212,-0.7813477 0.213941,-0.3627685 0.511597,-0.6604248 0.302307,-0.3023072 0.665076,-0.5162476 0.362768,-0.2139404 0.781347,-0.3302124 0.41858,-0.116272 0.869715,-0.116272 z m 0,5.9531254 q 0.553454,0 1.041797,-0.2092897 0.488342,-0.2139402 0.851111,-0.5767089 0.362768,-0.3627686 0.572058,-0.8511108 0.21394,-0.4883423 0.21394,-1.0417972 0,-0.5534546 -0.21394,-1.0417968 Q 9.0356258,2.2732444 8.6728578,1.9104758 8.3100888,1.5477072 7.8217468,1.3384177 7.3334038,1.1244772 6.7799498,1.1244772 q -0.553455,0 -1.041797,0.2139405 -0.488342,0.2092895 -0.851111,0.5720581 -0.362769,0.3627686 -0.576709,0.8511109 -0.20929,0.4883422 -0.20929,1.0417968 0,0.5534549 0.20929,1.0417972 0.21394,0.4883422 0.576709,0.8511108 0.362769,0.3627687 0.851111,0.5767089 0.488342,0.2092897 1.041797,0.2092897 z"
		/>
	</g>
</svg>
